<?xml version="1.0" encoding="iso-8859-1"?>
<!-- Generator: Adobe Illustrator 19.0.0, SVG Export Plug-In . SVG Version: 6.00 Build 0)  -->
<svg version="1.1" id="Capa_1" xmlns="http://www.w3.org/2000/svg" xmlns:xlink="http://www.w3.org/1999/xlink" x="0px" y="0px"
	 viewBox="0 0 488 488" style="enable-background:new 0 0 488 488;" xml:space="preserve">
<path style="fill:#689CB0;" d="M470.232,443.304l-37.336-96C429.312,338.08,420.424,332,410.528,332H69.472
	c-9.896,0-18.784,6.08-22.368,15.304l-37.336,96C3.656,459.032,15.256,476,32.136,476h415.72
	C464.744,476,476.344,459.032,470.232,443.304L470.232,443.304z M72,436l24-72h288l24,72H72z"/>
<path style="fill:#F7EAD0;" d="M384,364h-48h-48h-48h-48h-48H96l-24,72h336L384,364z"/>
<g>
	<circle style="fill:#F2CF77;" cx="240" cy="36" r="24"/>
	<circle style="fill:#F2CF77;" cx="336" cy="60" r="24"/>
	<circle style="fill:#F2CF77;" cx="432" cy="36" r="24"/>
	<circle style="fill:#F2CF77;" cx="456" cy="252" r="24"/>
	<circle style="fill:#F2CF77;" cx="32" cy="36" r="24"/>
	<circle style="fill:#F2CF77;" cx="160" cy="68" r="24"/>
	<circle style="fill:#F2CF77;" cx="88" cy="116" r="24"/>
	<path style="fill:#F2CF77;" d="M8,276c0,13.256,10.744,24,24,24s24-10.744,24-24c0-6.624-2.688-12.624-7.032-16.968L48,260
		l0.968-0.968C44.624,254.688,38.624,252,32,252C18.744,252,8,262.744,8,276z"/>
</g>
<g>
	<path style="fill:#474747;" d="M456,220c-14.864,0-27.288,10.232-30.864,24H392c-2.12,0-4.16,0.84-5.656,2.344L344,288.688v-25.376
		l93.656-93.656C439.16,168.16,440,166.128,440,164V66.864c13.76-3.576,24-15.992,24-30.864c0-17.648-14.352-32-32-32
		s-32,14.352-32,32c0,14.872,10.24,27.288,24,30.864v93.824l-8,8l-24-24V108h-16v40c0,2.128,0.84,4.16,2.344,5.656L404.688,180
		L360,224.688l-16-16V180h-16v32c0,2.128,0.84,4.16,2.344,5.656L348.688,236l-18.344,18.344C328.84,255.84,328,257.872,328,260v64
		h-32V191.312l45.656-45.656C343.16,144.16,344,142.128,344,140V90.864c13.76-3.576,24-15.992,24-30.864c0-17.648-14.352-32-32-32
		s-32,14.352-32,32c0,14.872,10.24,27.288,24,30.864v45.824l-45.656,45.656C280.84,183.84,280,185.872,280,188v136h-32V66.864
		c13.76-3.576,24-15.992,24-30.864c0-17.648-14.352-32-32-32s-32,14.352-32,32c0,14.872,10.24,27.288,24,30.864v165.824l-24-24V148
		h-16v64c0,2.128,0.84,4.16,2.344,5.656L232,255.312V324h-32v-40c0-2.128-0.84-4.16-2.344-5.656L123.312,204l42.344-42.344
		C167.16,160.16,168,158.128,168,156V98.864c13.76-3.576,24-15.992,24-30.864c0-17.648-14.352-32-32-32c-17.648,0-32,14.352-32,32
		c0,14.872,10.24,27.288,24,30.864v53.824l-40,40l-16-16v-29.824c13.76-3.576,24-15.992,24-30.864c0-17.648-14.352-32-32-32
		s-32,14.352-32,32c0,14.872,10.24,27.288,24,30.864V180c0,2.128,0.84,4.16,2.344,5.656L184,287.312V324h-32v-24
		c0-2.128-0.84-4.16-2.344-5.656L40,184.688V66.864C53.76,63.288,64,50.872,64,36C64,18.352,49.648,4,32,4S0,18.352,0,36
		c0,14.872,10.24,27.288,24,30.864V188c0,2.128,0.84,4.16,2.344,5.656L68.688,236H64c-2.12,0-4.16,0.84-5.656,2.344l-10.192,10.192
		C43.392,245.72,37.92,244,32,244c-17.648,0-32,14.352-32,32s14.352,32,32,32s32-14.352,32-32c0-5.92-1.72-11.392-4.536-16.152
		L67.312,252h17.376L136,303.312V324H69.472c-13.304,0-25,8.008-29.824,20.408l-37.336,96c-3.832,9.84-2.552,20.936,3.416,29.656
		C11.696,478.792,21.568,484,32.144,484h415.72c10.568,0,20.448-5.208,26.416-13.936c5.968-8.72,7.24-19.816,3.416-29.656
		l-37.336-96c-4.832-12.4-16.528-20.408-29.832-20.408H344v-12.688L395.312,260h29.824c3.576,13.768,16,24,30.864,24
		c17.648,0,32-14.352,32-32S473.648,220,456,220L456,220z M416,36c0-8.824,7.176-16,16-16s16,7.176,16,16s-7.176,16-16,16
		S416,44.824,416,36z M320,60c0-8.824,7.176-16,16-16s16,7.176,16,16s-7.176,16-16,16S320,68.824,320,60z M224,36
		c0-8.824,7.176-16,16-16s16,7.176,16,16s-7.176,16-16,16S224,44.824,224,36z M144,68c0-8.824,7.176-16,16-16s16,7.176,16,16
		c0,8.824-7.176,16-16,16S144,76.824,144,68z M72,116c0-8.824,7.176-16,16-16s16,7.176,16,16s-7.176,16-16,16S72,124.824,72,116z
		 M16,36c0-8.824,7.176-16,16-16s16,7.176,16,16s-7.176,16-16,16S16,44.824,16,36z M32,292c-8.824,0-16-7.176-16-16s7.176-16,16-16
		s16,7.176,16,16S40.824,292,32,292z M328,340v16h-32v-16H328z M344,404v-32h34.232l18.664,56h-313.8l18.664-56H136v32h16v-32h32v32
		h16v-32h32v32h16v-32h32v32h16v-32h32v32H344z M280,340v16h-32v-16H280z M232,340v16h-32v-16H232z M184,340v16h-32v-16H184z
		 M410.528,340c6.648,0,12.496,4.008,14.912,10.2l37.336,96c1.944,5,1.328,10.4-1.704,14.832S453.224,468,447.856,468H32.144
		c-5.36,0-10.176-2.536-13.208-6.968S15.28,451.2,17.224,446.2l37.336-96c2.416-6.192,8.264-10.2,14.912-10.2H136v16H96
		c-3.448,0-6.496,2.2-7.592,5.472l-24,72c-0.816,2.44-0.4,5.128,1.104,7.208S69.432,444,72,444h336c2.568,0,4.984-1.232,6.488-3.32
		s1.912-4.776,1.104-7.208l-24-72C390.496,358.2,387.448,356,384,356h-40v-16H410.528z M456,268c-8.824,0-16-7.176-16-16
		s7.176-16,16-16s16,7.176,16,16S464.824,268,456,268z"/>
	<path style="fill:#474747;" d="M192,100h16v32h-16V100z"/>
	<path style="fill:#474747;" d="M376,76h16v16h-16V76z"/>
</g>
<g>
</g>
<g>
</g>
<g>
</g>
<g>
</g>
<g>
</g>
<g>
</g>
<g>
</g>
<g>
</g>
<g>
</g>
<g>
</g>
<g>
</g>
<g>
</g>
<g>
</g>
<g>
</g>
<g>
</g>
</svg>
