<?xml version="1.0" standalone="no"?>
<!DOCTYPE svg PUBLIC "-//W3C//DTD SVG 20010904//EN"
 "http://www.w3.org/TR/2001/REC-SVG-20010904/DTD/svg10.dtd">
<svg version="1.0" xmlns="http://www.w3.org/2000/svg"
 width="700.000000pt" height="700.000000pt" viewBox="0 0 700.000000 700.000000"
 preserveAspectRatio="xMidYMid meet">
<metadata>
Created by potrace 1.11, written by Peter Selinger 2001-2013
</metadata>
<g transform="translate(0.000000,700.000000) scale(0.100000,-0.100000)"
fill="#000000" stroke="none">
<path d="M335 6926 c-215 -71 -347 -259 -331 -470 3 -39 9 -85 14 -101 34
-112 138 -233 239 -279 32 -15 65 -30 73 -35 13 -7 15 -118 15 -887 0 -709 3
-884 14 -903 7 -13 148 -158 312 -322 164 -164 299 -303 299 -309 0 -6 -11 -8
-25 -6 -46 9 -89 -16 -171 -96 l-82 -80 -68 27 c-251 102 -541 -47 -609 -311
-19 -76 -14 -192 13 -266 92 -259 394 -378 641 -254 116 59 217 193 240 321
18 96 -5 236 -48 304 -7 11 5 29 49 71 l58 56 124 -1 123 -1 368 -367 367
-367 0 -149 0 -149 -512 0 c-480 -1 -517 -2 -575 -20 -162 -51 -250 -148 -332
-367 -16 -44 -47 -125 -69 -180 -21 -55 -62 -158 -89 -230 -28 -71 -119 -305
-202 -518 -83 -214 -155 -406 -160 -428 -21 -94 3 -235 55 -326 58 -101 203
-202 314 -218 25 -4 1408 -7 3075 -6 2750 0 3036 1 3090 16 197 53 338 237
336 440 -1 100 -3 107 -166 520 -33 84 -109 281 -157 405 -22 58 -45 116 -51
130 -6 14 -11 27 -12 30 -3 12 -47 127 -55 145 -5 11 -35 85 -65 165 -77 199
-100 243 -159 304 -63 64 -173 122 -251 131 -30 4 -274 8 -542 9 l-488 1 0 90
0 90 368 368 367 367 214 0 213 0 18 -47 c50 -134 174 -245 315 -283 54 -15
165 -15 223 1 215 56 364 267 343 485 -23 237 -214 413 -451 416 -191 2 -362
-115 -430 -294 l-18 -48 -249 0 c-162 0 -257 -4 -271 -11 -12 -6 -162 -150
-332 -320 l-310 -309 -1 181 0 181 671 671 c369 370 679 683 688 697 16 22 17
82 17 735 l0 710 78 37 c291 137 356 510 129 738 -165 165 -445 174 -620 20
-102 -90 -159 -218 -156 -350 2 -88 11 -125 47 -199 49 -103 161 -198 275
-235 9 -3 17 -16 18 -28 0 -34 0 -1280 0 -1303 -1 -11 -27 -47 -58 -78 l-57
-58 -172 173 -172 173 0 250 c0 138 -1 256 -1 263 -1 10 -28 12 -113 10 l-113
-3 -1 -295 c-1 -221 2 -301 12 -320 7 -14 98 -110 203 -215 105 -104 190 -193
189 -197 -3 -8 -630 -638 -635 -638 -1 0 -53 51 -115 114 l-113 114 0 206 0
207 -115 -3 -115 -3 0 -230 c0 -126 1 -241 4 -255 2 -15 59 -81 147 -170 l143
-146 -125 -124 c-191 -190 -168 -105 -170 -655 -1 -258 -2 -473 -3 -476 -2
-12 -449 -7 -453 5 -2 6 -3 434 -3 951 l1 941 335 335 c209 208 339 346 345
364 6 17 10 180 9 383 l-1 352 82 40 c171 83 270 249 259 435 -7 124 -61 234
-156 319 -195 175 -512 140 -668 -74 -64 -88 -91 -180 -87 -289 6 -128 56
-235 154 -322 49 -44 74 -59 152 -92 l35 -14 0 -326 0 -327 -343 -343 c-256
-256 -342 -349 -343 -367 -1 -14 -2 -461 -4 -995 -1 -533 -3 -973 -4 -976 -1
-9 -451 -8 -452 0 -6 42 -2 3661 4 3674 4 9 14 17 21 17 32 0 125 59 182 115
170 169 180 434 22 618 -53 63 -114 103 -201 134 -64 22 -83 25 -169 20 -84
-4 -106 -9 -170 -40 -95 -46 -167 -118 -213 -211 -41 -84 -54 -142 -48 -230 6
-117 51 -213 138 -298 41 -41 135 -97 187 -112 16 -5 17 -83 18 -1192 0 -1116
-1 -1186 -17 -1173 -9 8 -87 84 -172 169 l-156 155 -1 430 c-1 237 -2 433 -3
436 -1 4 -50 6 -111 6 -91 0 -110 -3 -114 -16 -3 -14 -1 -901 3 -941 0 -8 129
-143 286 -300 l284 -285 1 -491 0 -491 -230 -1 -230 -2 0 295 c0 235 -3 302
-14 328 -8 18 -251 268 -551 567 l-536 534 310 311 c170 170 314 320 320 332
7 15 11 155 11 443 0 392 1 421 18 426 117 39 226 132 277 238 38 80 47 116
47 198 1 127 -52 247 -146 337 -181 171 -464 164 -637 -16 -143 -148 -172
-350 -76 -538 42 -83 167 -185 270 -219 16 -5 17 -33 17 -392 l0 -386 -286
-285 c-282 -281 -286 -284 -306 -266 -11 10 -63 62 -116 115 l-95 97 1 198 c0
246 0 233 15 233 33 0 140 64 191 114 176 173 181 449 12 633 -174 191 -476
195 -658 11 -63 -64 -94 -120 -117 -209 -60 -235 65 -463 300 -548 l27 -10 0
-249 c0 -180 3 -256 12 -273 7 -13 343 -354 747 -758 l733 -734 -2 -261 -3
-261 -227 -1 -228 -2 0 185 c0 115 -4 193 -11 206 -6 12 -367 379 -803 815
l-791 792 -1 844 0 845 45 17 c265 100 377 417 234 661 -50 85 -145 164 -243
201 -51 20 -226 24 -275 8z"/>
<path d="M5394 5795 l0 -115 113 0 113 0 1 43 c0 23 1 75 2 115 l2 72 -116 0
-115 0 0 -115z"/>
<path d="M2759 5561 c-5 -18 -4 -451 0 -452 37 -7 207 -2 215 7 7 7 11 87 11
230 l-1 219 -112 1 c-62 0 -113 -2 -113 -5z"/>
</g>
</svg>
